<svg xmlns="http://www.w3.org/2000/svg"  viewBox="0 0 100 100" width="100px" height="100px"><path fill="#c7ede6" d="M87.215,56.71C88.35,54.555,89,52.105,89,49.5c0-6.621-4.159-12.257-10.001-14.478	C78.999,35.015,79,35.008,79,35c0-11.598-9.402-21-21-21c-9.784,0-17.981,6.701-20.313,15.757C36.211,29.272,34.638,29,33,29	c-7.692,0-14.023,5.793-14.89,13.252C12.906,43.353,9,47.969,9,53.5C9,59.851,14.149,65,20.5,65c0.177,0,0.352-0.012,0.526-0.022	C21.022,65.153,21,65.324,21,65.5C21,76.822,30.178,86,41.5,86c6.437,0,12.175-2.972,15.934-7.614C59.612,80.611,62.64,82,66,82	c4.65,0,8.674-2.65,10.666-6.518C77.718,75.817,78.837,76,80,76c6.075,0,11-4.925,11-11C91,61.689,89.53,58.727,87.215,56.71z"/><path fill="#fdfcef" d="M69.5,34.5V35h-3v-0.5c0,0-4.242,0-5.5,0c-2.485,0-4.5-2.015-4.5-4.5	c0-2.333,1.782-4.229,4.055-4.455C60.533,25.364,60.5,25.187,60.5,25c0-2.485,2.015-4.5,4.5-4.5c1.438,0,2.703,0.686,3.527,1.736	C68.667,19.6,70.829,17.5,73.5,17.5c2.761,0,5,2.239,5,5c0,0.446-0.077,0.87-0.187,1.282c0.642-0.777,1.6-1.282,2.687-1.282	c1.781,0,3.234,1.335,3.455,3.055C84.636,25.533,84.813,25.5,85,25.5c2.485,0,4.5,2.015,4.5,4.5s-2.015,4.5-4.5,4.5s-9.5,0-9.5,0	H69.5z"/><path fill="#472b29" d="M73.5,17c3.033,0,5.5,2.467,5.5,5.5c0,0.016,0,0.031,0,0.047C79.602,22.192,80.29,22,81,22	c1.831,0,3.411,1.261,3.858,3.005C84.905,25.002,84.952,25,85,25c2.757,0,5,2.243,5,5s-2.243,5-5,5H69.5c-0.276,0-0.5-0.224-0.5-0.5	s0.224-0.5,0.5-0.5H85c2.206,0,4-1.794,4-4s-1.794-4-4-4c-0.117,0-0.23,0.017-0.343,0.032l-0.141,0.019	c-0.021,0.003-0.041,0.004-0.062,0.004c-0.246,0-0.462-0.185-0.495-0.437C83.768,24.125,82.496,23,81,23	c-0.885,0-1.723,0.401-2.301,1.1c-0.098,0.118-0.241,0.182-0.386,0.182c-0.078,0-0.156-0.018-0.228-0.056	c-0.209-0.107-0.314-0.346-0.254-0.573C77.946,23.218,78,22.852,78,22.5c0-2.481-2.019-4.5-4.5-4.5	c-2.381,0-4.347,1.872-4.474,4.263c-0.011,0.208-0.15,0.387-0.349,0.45c-0.05,0.016-0.101,0.024-0.152,0.024	c-0.15,0-0.296-0.069-0.392-0.192C67.362,21.563,66.221,21,65,21c-2.206,0-4,1.794-4,4c0,0.117,0.017,0.23,0.032,0.343l0.019,0.141	c0.016,0.134-0.022,0.268-0.106,0.373s-0.207,0.172-0.34,0.185C58.549,26.247,57,27.949,57,30c0,2.206,1.794,4,4,4h5.5	c0.276,0,0.5,0.224,0.5,0.5S66.776,35,66.5,35H61c-2.757,0-5-2.243-5-5c0-2.397,1.689-4.413,4.003-4.877	C60.001,25.082,60,25.041,60,25c0-2.757,2.243-5,5-5c1.176,0,2.293,0.416,3.183,1.164C68.781,18.76,70.945,17,73.5,17L73.5,17z"/><path fill="#472b29" d="M75,24c1.403,0,2.609,0.999,2.913,2.341C78.28,26.119,78.699,26,79.125,26	c1.202,0,2.198,0.897,2.353,2.068C81.681,28.022,81.874,28,82.063,28c1.529,0,2.811,1.2,2.918,2.732	C84.99,30.87,84.886,30.99,84.749,31c-0.006,0-0.012,0-0.018,0c-0.13,0-0.24-0.101-0.249-0.232	c-0.089-1.271-1.151-2.268-2.419-2.268c-0.229,0-0.47,0.042-0.738,0.127c-0.022,0.007-0.045,0.01-0.067,0.01	c-0.055,0-0.11-0.02-0.156-0.054C81.038,28.537,81,28.455,81,28.375c0-1.034-0.841-1.875-1.875-1.875	c-0.447,0-0.885,0.168-1.231,0.473c-0.047,0.041-0.106,0.063-0.165,0.063c-0.032,0-0.063-0.006-0.093-0.019	c-0.088-0.035-0.148-0.117-0.155-0.212C77.377,25.512,76.288,24.5,75,24.5c-0.208,0-0.425,0.034-0.682,0.107	c-0.023,0.007-0.047,0.01-0.07,0.01c-0.109,0-0.207-0.073-0.239-0.182c-0.038-0.133,0.039-0.271,0.172-0.309	C74.483,24.04,74.744,24,75,24L75,24z"/><path fill="#472b29" d="M61.117,25.5c1.326,0,2.508,0.897,2.874,2.182c0.038,0.133-0.039,0.271-0.172,0.309	C63.795,27.997,63.772,28,63.75,28c-0.109,0-0.209-0.072-0.24-0.182C63.205,26.748,62.221,26,61.117,26	c-0.117,0-0.23,0.014-0.342,0.029c-0.012,0.002-0.023,0.003-0.035,0.003c-0.121,0-0.229-0.092-0.246-0.217	c-0.019-0.137,0.077-0.263,0.214-0.281C60.842,25.516,60.978,25.5,61.117,25.5L61.117,25.5z"/><path fill="#ef9922" d="M68.625,75h-31.25C33.854,75,31,72.146,31,68.625v-31.25C31,33.854,33.854,31,37.375,31h31.25	C72.146,31,75,33.854,75,37.375v31.25C75,72.146,72.146,75,68.625,75z"/><path fill="#472b29" d="M68.625,75.7h-31.25c-3.901,0-7.075-3.174-7.075-7.075v-31.25c0-3.901,3.174-7.075,7.075-7.075h31.25	c3.901,0,7.075,3.174,7.075,7.075v31.25C75.7,72.526,72.526,75.7,68.625,75.7z M37.375,31.7c-3.129,0-5.675,2.546-5.675,5.675v31.25	c0,3.129,2.546,5.675,5.675,5.675h31.25c3.129,0,5.675-2.546,5.675-5.675v-31.25c0-3.129-2.546-5.675-5.675-5.675H37.375z"/><path fill="#472b29" d="M61.5,34.5H55c-0.276,0-0.5-0.224-0.5-0.5s0.224-0.5,0.5-0.5h6.5c0.276,0,0.5,0.224,0.5,0.5	S61.776,34.5,61.5,34.5z"/><path fill="#472b29" d="M34,42.262c-0.276,0-0.5-0.224-0.5-0.5v-4.27c0-2.201,1.942-3.992,4.329-3.992h13.736	c0.276,0,0.5,0.224,0.5,0.5s-0.224,0.5-0.5,0.5H37.829c-1.836,0-3.329,1.342-3.329,2.992v4.27C34.5,42.038,34.276,42.262,34,42.262z"/><path fill="#472b29" d="M72,59c-0.276,0-0.5-0.224-0.5-0.5V37.492c0-1.65-1.172-2.992-2.611-2.992h-3.312	c-0.276,0-0.5-0.224-0.5-0.5s0.224-0.5,0.5-0.5h3.312c1.991,0,3.611,1.791,3.611,3.992V58.5C72.5,58.776,72.276,59,72,59z"/><path fill="#472b29" d="M47.625,72.5h-9.85c-2.357,0-4.275-1.791-4.275-3.992V47.5c0-0.276,0.224-0.5,0.5-0.5	s0.5,0.224,0.5,0.5v21.008c0,1.65,1.47,2.992,3.275,2.992h9.85c0.276,0,0.5,0.224,0.5,0.5S47.901,72.5,47.625,72.5z"/><path fill="#472b29" d="M68.225,72.5h-17.6c-0.276,0-0.5-0.224-0.5-0.5s0.224-0.5,0.5-0.5h17.6	c1.806,0,3.275-1.342,3.275-2.992v-6.27c0-0.276,0.224-0.5,0.5-0.5s0.5,0.224,0.5,0.5v6.27C72.5,70.709,70.582,72.5,68.225,72.5z"/><path fill="#fff" d="M15.5,46h-10C5.224,46,5,45.776,5,45.5S5.224,45,5.5,45h10c0.276,0,0.5,0.224,0.5,0.5	S15.777,46,15.5,46z"/><path fill="#fff" d="M18.5,46h-1c-0.276,0-0.5-0.224-0.5-0.5s0.224-0.5,0.5-0.5h1c0.276,0,0.5,0.224,0.5,0.5	S18.777,46,18.5,46z"/><path fill="#fff" d="M23.491,48H14.5c-0.276,0-0.5-0.224-0.5-0.5s0.224-0.5,0.5-0.5h8.991c0.276,0,0.5,0.224,0.5,0.5	S23.767,48,23.491,48z"/><path fill="#fff" d="M12.5,48h-1c-0.276,0-0.5-0.224-0.5-0.5s0.224-0.5,0.5-0.5h1c0.276,0,0.5,0.224,0.5,0.5	S12.777,48,12.5,48z"/><path fill="#fff" d="M9.5,48h-2C7.224,48,7,47.776,7,47.5S7.224,47,7.5,47h2c0.276,0,0.5,0.224,0.5,0.5S9.777,48,9.5,48z"/><path fill="#fff" d="M15.5,50h-2c-0.276,0-0.5-0.224-0.5-0.5s0.224-0.5,0.5-0.5h2c0.276,0,0.5,0.224,0.5,0.5	S15.776,50,15.5,50z"/><path fill="#fff" d="M18.5,41c-0.177,0-0.823,0-1,0c-0.276,0-0.5,0.224-0.5,0.5s0.224,0.5,0.5,0.5c0.177,0,0.823,0,1,0	c0.276,0,0.5-0.224,0.5-0.5S18.776,41,18.5,41z"/><path fill="#fff" d="M18.5,43c-0.177,0-4.823,0-5,0c-0.276,0-0.5,0.224-0.5,0.5s0.224,0.5,0.5,0.5c0.177,0,4.823,0,5,0	c0.276,0,0.5-0.224,0.5-0.5S18.776,43,18.5,43z"/><path fill="#fff" d="M23.5,45c-0.177,0-2.823,0-3,0c-0.276,0-0.5,0.224-0.5,0.5s0.224,0.5,0.5,0.5c0.177,0,2.823,0,3,0	c0.276,0,0.5-0.224,0.5-0.5S23.776,45,23.5,45z"/><path fill="#fff" d="M86.5,70h-10c-0.276,0-0.5-0.224-0.5-0.5s0.224-0.5,0.5-0.5h10c0.276,0,0.5,0.224,0.5,0.5 S86.776,70,86.5,70z"/><path fill="#fff" d="M90.5,70h-2c-0.276,0-0.5-0.224-0.5-0.5s0.224-0.5,0.5-0.5h2c0.276,0,0.5,0.224,0.5,0.5 S90.776,70,90.5,70z"/><path fill="#fff" d="M95.5,72h-10c-0.276,0-0.5-0.224-0.5-0.5s0.224-0.5,0.5-0.5h10c0.276,0,0.5,0.224,0.5,0.5 S95.777,72,95.5,72z"/><path fill="#fff" d="M83.5,72h-1c-0.276,0-0.5-0.224-0.5-0.5s0.224-0.5,0.5-0.5h1c0.276,0,0.5,0.224,0.5,0.5 S83.776,72,83.5,72z"/><path fill="#fff" d="M80.47,72H78.5c-0.276,0-0.5-0.224-0.5-0.5s0.224-0.5,0.5-0.5h1.97c0.276,0,0.5,0.224,0.5,0.5 S80.746,72,80.47,72z"/><path fill="#fff" d="M89.5,68h-5c-0.276,0-0.5-0.224-0.5-0.5s0.224-0.5,0.5-0.5h5c0.276,0,0.5,0.224,0.5,0.5 S89.777,68,89.5,68z"/><path fill="#fff" d="M86.5,74h-2c-0.276,0-0.5-0.224-0.5-0.5s0.224-0.5,0.5-0.5h2c0.276,0,0.5,0.224,0.5,0.5 S86.776,74,86.5,74z"/><g><path fill="#fdfcef" d="M17.5,66.5c0,0-1.567,0-3.5,0s-3.5-1.567-3.5-3.5c0-1.781,1.335-3.234,3.055-3.455 C13.527,59.366,13.5,59.187,13.5,59c0-1.933,1.567-3.5,3.5-3.5c1.032,0,1.95,0.455,2.59,1.165c0.384-1.808,1.987-3.165,3.91-3.165 c2.209,0,4,1.791,4,4c0,0.191-0.03,0.374-0.056,0.558C27.872,57.714,28.408,57.5,29,57.5c1.228,0,2.245,0.887,2.455,2.055 C31.634,59.527,31.813,59.5,32,59.5c1.933,0,3.5,1.567,3.5,3.5s-1.567,3.5-3.5,3.5s-7.5,0-7.5,0V67h-7V66.5z"/><path fill="#472b29" d="M15.75,62c0.138,0,0.25-0.112,0.25-0.25c0-1.223-0.995-2.218-2.218-2.218 c-0.034,0.009-0.737-0.001-1.244,0.136c-0.133,0.036-0.212,0.173-0.176,0.306c0.036,0.134,0.173,0.213,0.306,0.176 c0.444-0.12,1.1-0.12,1.113-0.118c0.948,0,1.719,0.771,1.719,1.718C15.5,61.888,15.612,62,15.75,62z"/><circle cx="22.5" cy="66.5" r=".5" fill="#472b29"/><path fill="#472b29" d="M14,67h3.5c0.276,0,0.5-0.224,0.5-0.5S17.776,66,17.5,66H14c-1.654,0-3-1.346-3-3 c0-1.496,1.125-2.768,2.618-2.959c0.134-0.018,0.255-0.088,0.336-0.196s0.115-0.244,0.094-0.377C14.025,59.314,14,59.16,14,59 c0-1.654,1.346-3,3-3c0.85,0,1.638,0.355,2.219,1c0.125,0.139,0.321,0.198,0.5,0.148c0.182-0.049,0.321-0.195,0.36-0.379 C20.42,55.165,21.859,54,23.5,54c1.93,0,3.5,1.57,3.5,3.5c0,0.143-0.021,0.28-0.041,0.418c-0.029,0.203,0.063,0.438,0.242,0.54 s0.396,0.118,0.556-0.01C28.122,58.155,28.551,58,29,58c0.966,0,1.792,0.691,1.963,1.644c0.048,0.267,0.296,0.446,0.569,0.405 C31.686,60.025,31.84,60,32,60c1.654,0,3,1.346,3,3s-1.346,3-3,3h-7.5c-0.276,0-0.5,0.224-0.5,0.5s0.224,0.5,0.5,0.5H32 c2.206,0,4-1.794,4-4s-1.794-4-4-4c-0.059,0-0.116,0.002-0.174,0.006C31.412,57.82,30.289,57,29,57 c-0.349,0-0.689,0.061-1.011,0.18C27.824,54.847,25.874,53,23.5,53c-1.831,0-3.466,1.127-4.153,2.774 C18.667,55.276,17.845,55,17,55c-2.206,0-4,1.794-4,4c0,0.048,0.001,0.095,0.004,0.142C11.261,59.59,10,61.169,10,63 C10,65.206,11.794,67,14,67z"/><path fill="#472b29" d="M19.5,66c0.159,0,0.841,0,1,0c0.276,0,0.5,0.224,0.5,0.5S20.776,67,20.5,67c-0.159,0-0.841,0-1,0 c-0.276,0-0.5-0.224-0.5-0.5S19.224,66,19.5,66z"/></g><path fill="#fff" d="M60,47.625v8.75C60,56.72,60.28,57,60.625,57h8.75C69.72,57,70,56.72,70,56.375v-8.75	C70,47.28,69.72,47,69.375,47h-8.75C60.28,47,60,47.28,60,47.625z M67.835,54.584c-0.4,0.21-0.768,0.358-1.104,0.447	c-0.336,0.088-0.727,0.132-1.175,0.132c-0.65,0-1.232-0.13-1.744-0.388c-0.512-0.259-0.915-0.632-1.208-1.119	c-0.293-0.487-0.439-1.021-0.439-1.601c0-0.621,0.151-1.18,0.453-1.674c0.302-0.495,0.717-0.876,1.245-1.143	c0.528-0.267,1.123-0.401,1.786-0.401c0.35,0,0.693,0.039,1.029,0.119c0.336,0.079,0.698,0.214,1.086,0.406v1.122	c-0.38-0.218-0.73-0.375-1.053-0.473c-0.322-0.096-0.659-0.145-1.009-0.145c-0.438,0-0.835,0.091-1.188,0.271	c-0.353,0.182-0.628,0.436-0.824,0.767c-0.196,0.329-0.293,0.695-0.293,1.099c0,0.413,0.097,0.781,0.291,1.109	c0.194,0.325,0.468,0.579,0.821,0.757c0.353,0.178,0.751,0.268,1.192,0.268c0.339,0,0.662-0.049,0.97-0.146	c0.307-0.097,0.695-0.273,1.163-0.525V54.584z"/><g><path fill="#fff" d="M54.108,53.257c0-0.262-0.102-0.469-0.307-0.621c-0.205-0.151-0.479-0.227-0.824-0.227h-1.122v1.745 h1.029c0.403,0,0.708-0.077,0.914-0.228C54.005,53.774,54.108,53.55,54.108,53.257z"/><path fill="#fff" d="M53.353,51.252c0.182-0.15,0.274-0.36,0.274-0.627c0-0.238-0.084-0.428-0.252-0.568 c-0.168-0.14-0.389-0.21-0.662-0.21h-0.857v1.629h0.751C52.922,51.476,53.171,51.402,53.353,51.252z"/><path fill="#fff" d="M48.625,57h8.75C57.72,57,58,56.72,58,56.375v-8.75C58,47.28,57.72,47,57.375,47h-8.75 C48.28,47,48,47.28,48,47.625v8.75C48,56.72,48.28,57,48.625,57z M50.664,48.915h2.261c0.565,0,1.026,0.148,1.382,0.442 c0.356,0.295,0.534,0.664,0.534,1.105c0,0.283-0.074,0.531-0.223,0.746c-0.148,0.214-0.364,0.386-0.647,0.512v0.053 c0.43,0.097,0.765,0.289,1.005,0.576c0.24,0.286,0.359,0.623,0.359,1.009c0,0.341-0.088,0.646-0.262,0.916 c-0.175,0.269-0.418,0.472-0.729,0.607c-0.31,0.135-0.676,0.203-1.097,0.203h-2.583V48.915z"/></g><g><path fill="#fff" d="M36.625,57h8.75C45.72,57,46,56.72,46,56.375v-8.75C46,47.28,45.72,47,45.375,47h-8.75 C36.28,47,36,47.28,36,47.625v8.75C36,56.72,36.28,57,36.625,57z M38.664,48.915h2.261c0.565,0,1.026,0.148,1.382,0.442 c0.356,0.295,0.534,0.664,0.534,1.105c0,0.283-0.074,0.531-0.223,0.746c-0.148,0.214-0.364,0.386-0.647,0.512v0.053 c0.43,0.097,0.765,0.289,1.005,0.576c0.24,0.286,0.359,0.623,0.359,1.009c0,0.341-0.088,0.646-0.262,0.916 c-0.175,0.269-0.418,0.472-0.729,0.607c-0.31,0.135-0.676,0.203-1.097,0.203h-2.583V48.915z"/><path fill="#fff" d="M42.108,53.257c0-0.262-0.102-0.469-0.307-0.621c-0.205-0.151-0.479-0.227-0.824-0.227h-1.122v1.745 h1.029c0.403,0,0.708-0.077,0.914-0.228C42.005,53.774,42.108,53.55,42.108,53.257z"/><path fill="#fff" d="M41.353,51.252c0.182-0.15,0.274-0.36,0.274-0.627c0-0.238-0.084-0.428-0.252-0.568 c-0.168-0.14-0.389-0.21-0.662-0.21h-0.857v1.629h0.751C40.922,51.476,41.171,51.402,41.353,51.252z"/></g></svg>